<?xml version="1.0" encoding="UTF-8"?>
<svg id="Layer_1" data-name="Layer 1" xmlns="http://www.w3.org/2000/svg" xmlns:xlink="http://www.w3.org/1999/xlink" viewBox="0 0 409.18 107.54">
  <defs>
    <style>
      .cls-1, .cls-2, .cls-3, .cls-4, .cls-5, .cls-6, .cls-7, .cls-8, .cls-9, .cls-10 {
        stroke: #231f20;
        stroke-miterlimit: 10;
      }

      .cls-1, .cls-5, .cls-6 {
        fill: none;
      }

      .cls-2 {
        fill: #fff;
      }

      .cls-3 {
        fill: #231f20;
      }

      .cls-4 {
        fill: #1b75bb;
      }

      .cls-5, .cls-7, .cls-9 {
        stroke-linecap: round;
      }

      .cls-6 {
        stroke-width: 1.5px;
      }

      .cls-7 {
        fill: #00adee;
      }

      .cls-8 {
        fill: #f28cb9;
      }

      .cls-9, .cls-10 {
        fill: #fff100;
      }
    </style>
    <symbol id="buttery-eel_2" data-name="buttery-eel 2" viewBox="0 0 409.18 107.54">
      <g>
        <path class="cls-10" d="M213.85,41.75c-3.23,3.23-15.08,14.15-18.96,11.74-2.06,1.69-5.21,1.92-7.49,.54-.94-.57-1.81-1.41-2.91-1.47-1.02-.06-1.93,.55-2.85,.98-2.61,1.21-5.84,.93-8.2-.71-.82-.57-1.59-1.32-2.58-1.49-.95-.16-1.89,.25-2.76,.65-3.76,1.73-8.48,3.43-11.75,.89-.61-.47-1.16-1.09-1.91-1.28-.71-.17-1.44,.07-2.12,.33-2.42,.91-4.84,1.98-7.41,2.21s-5.43-.55-6.91-2.67c-4.3,3.16-10.63,3.25-15.01,.2-3.36,1.69-7.48,1.8-10.92,.29-1.08-.47-2.11-1.1-3.26-1.32-2.35-.45-4.83,.85-7.12,.17-1.94-.58-3.35-2.49-5.36-2.8-1.24-.19-2.47,.28-3.68,.6-4.88,1.29-10.34,.06-14.2-3.19-2.1,1.81-5.58,1.73-7.6-.18-.94-.89-1.71-2.18-2.99-2.35-.87-.11-1.69,.34-2.51,.64-3.42,1.27-7.66-.3-9.43-3.48-4.34,2.35-10.32,.99-13.23-3-3.31,2.58-8.5,2.29-11.51-.63-.52-.51-.99-1.09-1.62-1.47-.77-.47-1.71-.58-2.59-.77-2.71-.57-5.24-1.97-7.16-3.97-.41-.43-.68-1.51-1.1-1.93"/>
        <path class="cls-10" d="M215.28,63.93c-1.64,4.55,.51,9.22,1.65,13.61,.52,2,1.29,4.02,2.46,5.77,1.04,1.56,2.24,3.23,4.32,3.21,.05,0,.1,0,.14,.03,.05,.03,.07,.1,.08,.15,.33,1.25,1.51,2.2,2.73,2.51s2.67,.12,3.87,.74c1.22,.63,1.97,1.99,3.25,2.5,1.83,.73,4.09-.54,5.8,.42,.68,.38,1.15,1.06,1.73,1.59,1.81,1.64,4.12,1.31,6.1,.26,.02-.01,.05-.02,.07-.02,.03,0,.06,.03,.08,.05,1.82,2.03,4.57,3.18,7.29,3.04,.9-.04,1.83-.22,2.68,.06,.88,.28,1.55,1,2.34,1.49,1.7,1.05,3.62,.81,5.31-.07,.04-.02,.08-.04,.12-.04,.03,0,.06,.02,.09,.04,2.77,1.84,6,2.58,9.2,1.53,.07-.02,.14-.04,.21-.04,.09,0,.17,.06,.24,.11,3.23,2.17,7.25,2.73,10.86,1.21,.05-.02,.11-.04,.16-.03,.05,0,.09,.04,.12,.07,3.56,3.07,8.23,3.42,12.37,1.45,.04-.02,.09-.04,.14-.03,.04,0,.07,.03,.1,.06,1.97,1.59,4.48,2.34,6.99,1.73,.99-.24,1.96-.68,2.98-.68,1.34,0,2.55,.77,3.81,1.23,2.1,.75,4.49,.63,6.5-.33,.52-.25,1.05-.56,1.62-.53,.69,.03,1.26,.52,1.83,.9,2.81,1.88,6.44,1.15,8.78-1.07,.03-.03,.07-.06,.12-.07,.04,0,.08,.02,.11,.04,1.7,.98,3.47,1.97,5.45,2.19,1.01,.11,2.07-.01,3.01-.39,.49-.2,.96-.47,1.36-.81,.23-.2,.7-1.02,.99-1.02,.16,0,.3,.1,.44,.19,1.49,1.01,3.73,1.67,5.52,1.71,2.3,.04,3.7-1.34,5-3.04,.02-.02,.04-.05,.07-.06,.03,0,.07,0,.1,.02,1.71,.85,3.57,1.48,5.41,.58,.98-.48,1.75-1.28,2.24-2.25,.24-.48,.4-.99,.51-1.52,.04-.22,0-.68,.11-.86,.16-.26,.22-.17,.56-.2,2.27-.22,3.87-2.44,4.09-4.59,.24-2.41-.77-4.74-1.76-6.95"/>
        <path class="cls-4" d="M223.6,72.32c-2.94-2.15-5.6-4.71-7.79-7.64-2.51-3.36-4.38-7.23-5.14-11.37-.09-.48-.09-.71-.52-.95-.53-.3-1.08-.57-1.63-.84-1.12-.55-2.26-1.07-3.42-1.55-2.31-.95-4.69-1.75-7.1-2.41-4.65-1.26-9.43-1.98-14.23-2.41s-9.64-.57-14.46-.66c-42.71-.75-85.96,1.83-127.7-7.29-9.39-2.05-18.84-4.78-26.71-10.3C7.04,21.39,.93,12.62,.76,3.02c1.03-1.11,3.82-1.69,5.12-.91,29.53,17.61,66.01,17.23,100.38,16.33,17.51-.46,35.03-.92,52.54-1.38,16.56-.43,33.28-.86,49.52,2.37,5.97,1.19,10.07,3.67,13.17,8.76,2.24,3.69,.36,3.76,5.65,5.8,4,1.55,8.11,2.85,12.24,4,16.25,4.54,33.14,6.37,49.96,7.13,23.12,1.05,46.32,.14,69.41,1.72,13.31,.91,26.57,2.65,39.67,5.2,2.9,.57,5.99,1.28,8,3.45,2.49,2.69,2.54,7.02,.88,10.29s-4.72,5.61-7.94,7.37c-9.73,5.33-21.62,6.33-30.52,12.96-4.45,3.31-11.21,3.7-16.7,4.47-35.5,4.96-72.1,2.32-106.36-8.19-7.8-2.39-15.59-5.25-22.17-10.06Z"/>
        <path class="cls-5" d="M380.38,68.06c2.53,4.27,7.57,7.02,12.63,6.91"/>
        <path class="cls-5" d="M350.24,68.06c-1.56,.89-2.65,2.41-3.48,4.01-1.48,2.87-2.23,6.22-1.52,9.37s3.06,6.02,6.19,6.82"/>
        <path class="cls-7" d="M344.38,73.89c-6.01,2.98-13.08,3.79-19.61,2.25-1.77,4.47,.75,10.02,5.12,12.03s9.92,.54,13.11-3.05"/>
        <path class="cls-5" d="M324.7,81.01h2.58"/>
        <path class="cls-5" d="M327.56,86.58l2.06-1.03"/>
        <path class="cls-5" d="M333.71,88.8l1.03-2.06"/>
        <path class="cls-5" d="M226.79,73.92c-.36,1.47-.5,3-.4,4.51"/>
        <path class="cls-5" d="M232.59,76.97c-.11,1.68-.03,3.37,.23,5.03"/>
        <path class="cls-5" d="M239.39,79.49l.49,5.18"/>
        <path class="cls-5" d="M247.45,82.37c.52,1.39,.93,2.82,1.22,4.28"/>
        <path class="cls-5" d="M254.6,83.88c.37,1.71,.64,3.44,.79,5.19"/>
        <path class="cls-5" d="M263.38,86.06c.6,1.44,.89,3,.84,4.55"/>
        <path class="cls-5" d="M272.42,88.33c.59,1.19,.99,2.47,1.19,3.78"/>
        <path class="cls-5" d="M279.85,88.82c-.03,1.53,.19,3.07,.64,4.54"/>
        <path class="cls-5" d="M287.2,90.22l1.07,3.9"/>
        <path class="cls-5" d="M295.25,90.71l1.6,4.33"/>
        <path class="cls-5" d="M303.95,91.93c.39,1.39,.58,2.84,.56,4.29"/>
        <path class="cls-5" d="M313.23,91.64c.18,1.83,.78,3.62,1.73,5.2"/>
        <path class="cls-5" d="M322.4,92.38l2.65,4.55"/>
        <path class="cls-5" d="M331.25,91.48c.78,1.82,1.92,3.48,3.32,4.88"/>
        <path class="cls-5" d="M340.08,91.45c.38,.17,.54,.61,.68,1,.48,1.34,1.15,2.6,1.98,3.74"/>
        <path class="cls-5" d="M347.1,90.54c1.36,1.91,2.98,3.64,4.82,5.1"/>
        <path class="cls-5" d="M356.57,89.56l3.47,4.52"/>
        <ellipse class="cls-3" cx="369.49" cy="58.56" rx="7.21" ry="5.68" transform="translate(3.7 136.97) rotate(-21.1)"/>
        <ellipse class="cls-8" cx="358.18" cy="73.75" rx="3.68" ry="2.42"/>
        <path class="cls-9" d="M333.3,45.05c-.47,4.82,.26,9.75,2.11,14.23-1.73,.55-3.67-.37-4.82-1.78s-1.66-3.23-2.07-5c-.57-2.48-.98-5-1.25-7.53"/>
        <path class="cls-9" d="M312.64,45.16c-.1,5.67,1.3,11.35,4.02,16.32,.16,.29,.32,.67,.13,.94-.08,.11-.2,.18-.32,.23-1.28,.59-2.85,.21-3.99-.64s-1.91-2.07-2.6-3.3c-2.25-4.02-3.83-8.42-4.66-12.95-.05-.25-.32-.63-.43-.86"/>
        <path class="cls-9" d="M281.89,44.08c.52,4.65,2.15,9.17,4.72,13.08,1.03,1.57,2.26,3.09,3.91,4s3.8,1.1,5.37,.07c-2.43-1.81-4.01-4.57-4.93-7.46s-1.24-5.92-1.55-8.94c-.02-.21-.11-.16-.12-.37"/>
        <path class="cls-9" d="M269.17,42.9c.64,5.57,1.29,11.18,2.89,16.56-1.11,.45-2.42,.04-3.34-.72s-1.53-1.83-2.08-2.89c-2.26-4.3-4.07-8.99-4.02-13.84"/>
        <path class="cls-9" d="M254.07,40.81c-.43,3.39-.85,6.79-1.28,10.18-.13,1.04-.26,2.14-.25,3.21,0,.56,.05,1.11,.15,1.66,.09,.49,.41,1.07,.43,1.54-1.12,.2-2.38-.52-3.15-1.27-.85-.82-1.43-1.88-1.89-2.97-1.36-3.17-1.92-6.68-1.59-10.12,.13-1.33,.45-2.58,1.08-3.75"/>
        <path class="cls-9" d="M238.61,37.26c-.53,.26-.84,.81-1.1,1.33-1.63,3.17-2.89,6.53-3.76,9.99-.25,1-.47,2.08-.13,3.05,.32,.9,1.1,1.83,.66,2.68-1.12,.35-2.31-.36-3.12-1.22-2.21-2.35-2.84-5.84-2.38-9.03s1.87-6.15,3.3-9.03"/>
        <path class="cls-9" d="M222.17,29.82c-2.73,3.91-4.4,8.64-4.63,13.4-.08,1.66-.06,3.39,.51,4.97,.28,.78,.7,1.52,1.26,2.13,.67,.74,2.57,2.2,2.41,.14-.15-2.04-.35-4.09-.33-6.14,.03-2.13,.19-4.28,.83-6.33s1.96-3.67,2.38-5.73"/>
        <path class="cls-9" d="M206.23,18.26c-1.37,4-1.89,8.28-1.51,12.49,.13,1.44,.37,2.89,1.04,4.17s1.83,2.36,3.24,2.64c-1.94-5.92-.53-12.82,3.58-17.5"/>
        <path class="cls-9" d="M187.45,16.41c-.5,4.55,.32,9.24,2.34,13.35,.37,.75,.78,1.48,1.35,2.08,1.25,1.3,3.11,1.78,4.86,2.21,.41,.1,.87,.19,1.22-.05,.35-.24,.43-.75,.3-1.16s-.42-.74-.69-1.08c-3.19-3.96-4.33-9.49-2.96-14.4,.06-.21,.14-.26,.15-.48"/>
        <path class="cls-9" d="M169.92,16.25c-.56,5.58,.82,11.34,3.84,16.07,.25,.4,.53,.87,.37,1.31-.17,.49-.78,.67-1.3,.68-1.72,.04-3.35-.91-4.48-2.21s-1.82-2.91-2.41-4.52c-1.3-3.62-2.13-7.41-2.45-11.24"/>
        <path class="cls-9" d="M121.13,17.53c.27,.31,.22,.78,.17,1.2-.36,2.89-.07,5.98,1.51,8.43,.51,.79,1.17,1.53,1.4,2.45-.87,.03-1.76,.06-2.58-.24-1.08-.4-1.88-1.32-2.56-2.25-1.9-2.59-3.3-5.53-4.12-8.63-.09-.33-.25-.39-.34-.71"/>
        <path class="cls-9" d="M94.15,18.15c.47,4.21,1.05,8.68,3.78,11.91-1.22,.44-2.61,.25-3.78-.33s-2.1-1.53-2.84-2.61c-1.79-2.62-2.36-5.86-2.89-9"/>
        <path class="cls-9" d="M70.06,17.69c-.92,3.06-.2,6.56,1.85,9.01-1.48,.54-3.24,.2-4.4-.86-.66-.6-1.11-1.37-1.54-2.15-1.15-2.07-2.19-4.19-3.12-6.36"/>
        <path class="cls-9" d="M47.68,15.61c-.55,2.23-.43,4.66,.34,6.77,.43,1.17,1.06,2.25,1.33,3.48-1.7,.22-3.55,.01-4.83-1.24-.76-.74-1.26-1.78-1.65-2.84-.43-1.17-.75-2.38-.95-3.62-.1-.64-.18-1.28-.22-1.92-.02-.28,0-.58-.06-.86-.07-.32-.18-.6-.18-.94"/>
        <path class="cls-9" d="M27.1,10.95c-.21,1.17,.07,2.36,.35,3.52,.42,1.74,.87,3.54,2.01,4.91-1.12,.25-2.32-.25-3.14-1.06s-1.32-1.88-1.7-2.97c-.62-1.79-.95-3.67-.98-5.57"/>
        <path class="cls-5" d="M200.6,47.74c-.48,.41-.75,1-1.01,1.57-.18,.39-.36,.79-.54,1.18"/>
        <path class="cls-5" d="M192.3,45.49c-.21,.12-.31,.36-.42,.58-.5,1.01-1.35,1.86-1.64,2.94"/>
        <path class="cls-5" d="M183.66,44.16c-.6,1.22-1.65,2.17-2.31,3.36"/>
        <path class="cls-5" d="M173.19,43.66c-.3,.89-.62,1.77-.96,2.65"/>
        <path class="cls-5" d="M162.5,43.61c-.1,.05-.12,.18-.14,.29-.14,.98-.29,1.96-.43,2.94"/>
        <path class="cls-5" d="M153.87,43.52c-.31,1.32-1.05,2.53-1.28,3.87"/>
        <path class="cls-5" d="M144.01,43.46c-.43,.94-.86,1.89-1.08,2.9"/>
        <path class="cls-5" d="M131.47,43.17c-.11,.94-.26,1.87-.46,2.8"/>
        <path class="cls-5" d="M120.55,43.27c-.36,1.07-.73,2.13-1.13,3.18"/>
        <path class="cls-5" d="M105.09,42.96l-1.36,2.99c-.07,.16-.15,.33-.16,.51"/>
        <path class="cls-5" d="M95.36,42.79c-.46,.62-.9,1.27-1.31,1.92"/>
        <path class="cls-5" d="M81.4,41.99c-.76,.95-1.11,1.44-1.75,2.47"/>
        <path class="cls-1" d="M210.45,51.58v-9.67c0-.87,0-1.75,.08-2.61,.25-2.78,1.3-5.44,2.68-7.87,.39-.68,.81-1.35,1.37-1.89,.52-.49,1.14-.85,1.76-1.2,1.41-.81,2.88-1.63,4.49-1.76"/>
        <path class="cls-9" d="M145.49,16.65c.23,1.2,.52,2.38,.87,3.55,.23,.75,.47,1.5,.72,2.24,.36,1.07,.72,2.14,1.07,3.21,.42,1.26,.97,2.67,2.2,3.19-.16,.23-.46,.31-.73,.36-1.59,.28-3.27-.11-4.65-.94s-2.48-2.1-3.23-3.53c-.32-.61-.59-1.26-.72-1.95-.13-.66-.13-1.34-.13-2.01,0-1.31,0-2.61,0-3.92"/>
        <ellipse class="cls-2" cx="367.33" cy="56.52" rx="2.17" ry="2.03"/>
        <path class="cls-6" d="M223.6,71.32c-2.94-2.15-5.6-4.71-7.79-7.64-2.51-3.36-4.38-7.23-5.14-11.37-.09-.48-.09-.71-.52-.95-.53-.3-1.08-.57-1.63-.84-1.12-.55-2.26-1.07-3.42-1.55-2.31-.95-4.69-1.75-7.1-2.41-4.65-1.26-9.43-1.98-14.23-2.41s-9.64-.57-14.46-.66c-42.71-.75-85.96,1.83-127.7-7.29-9.39-2.05-18.84-4.78-26.71-10.3C7.04,20.39,.93,11.62,.76,2.02,1.79,.91,4.58,.33,5.87,1.1c29.53,17.61,66.01,17.23,100.38,16.33,17.51-.46,35.03-.92,52.54-1.38,16.56-.43,33.28-.86,49.52,2.37,5.97,1.19,10.07,3.67,13.17,8.76,2.24,3.69,.36,3.76,5.65,5.8,4,1.55,8.11,2.85,12.24,4,16.25,4.54,33.14,6.37,49.96,7.13,23.12,1.05,46.32,.14,69.41,1.72,13.31,.91,26.57,2.65,39.67,5.2,2.9,.57,5.99,1.28,8,3.45,2.49,2.69,2.54,7.02,.88,10.29s-4.72,5.61-7.94,7.37c-9.73,5.33-21.62,6.33-30.52,12.96-4.45,3.31-11.21,3.7-16.7,4.47-35.5,4.96-72.1,2.32-106.36-8.19-7.8-2.39-15.59-5.25-22.17-10.06Z"/>
      </g>
    </symbol>
  </defs>
  <use width="409.18" height="107.54" xlink:href="#buttery-eel_2"/>
</svg>